<svg version="1" xmlns="http://www.w3.org/2000/svg" width="960" height="960" viewBox="0 0 720.000000 720.000000"><path d="M340 8.6c-29.3 2.5-46.9 5.3-68 10.8C138.9 53.8 36.8 164.5 13.5 299.5c-4 23-4.9 34.7-4.9 60.5 0 25.8.9 37.5 4.9 60.5 25 145.1 140.9 261 286 286 23.6 4.1 34.7 4.9 63 4.9 29.7 0 41.8-1.2 67.7-6.4 70.3-14.4 136-51 185.7-103.6 49.6-52.5 82.7-121 92.5-191.4 2.8-20.2 3.4-30.9 3.1-54.5-.5-31.6-3.6-55.2-10.9-83.7C671.3 158.5 585.8 66 475 27.6c-24.1-8.4-48.5-14-75-17.2-12.1-1.4-50.8-2.6-60-1.8zm47 172.6v82.2l6.2-9.5c10.4-15.8 27.7-31.3 44.3-39.7 6.6-3.3 21.7-8 31.7-9.8 11.2-2.1 38.1-2.4 47.8-.5 55 10.4 93.6 57.5 102.5 124.9 2.9 21.7 1.5 54.7-3.1 74.9-11.5 51-43.7 88.5-86.5 100.7-30 8.6-66.7 5.2-93.3-8.6-18.4-9.6-36-26.4-46.9-44.8l-2.7-4.5V503h-23V99h23v82.2zm-148.1 23.3c33.3 6.5 56.2 21.6 67.6 44.7 2.5 5.1 5.4 12.9 6.5 17.4 1.8 7.3 4 26 4 34.1v3.3H294.3l-1.1-12.8c-.6-7-2.1-15.9-3.3-19.7-6.5-21.3-23.6-36.4-47.8-42.4-23.8-5.9-55.3-4.9-74.1 2.2-13.9 5.2-23.2 12.2-30 22.4-6.2 9.3-8.5 18.6-7.7 31.2.7 11.9 3.6 19 10.6 26.4 10 10.5 20.9 14.7 73.1 28.2 58 15 71.5 20.1 86.2 32.4 16.5 13.9 23.7 29.9 23.8 52.9 0 24-7.4 41.2-24.7 57.2-9 8.3-19.8 14.4-33.7 19.1-17.1 5.8-27.8 7.3-51.1 7.3-37.6 0-63.7-7.1-84.5-23.2-21.9-16.9-34-46.1-34-82.5V394H118.7l.6 13.2c1.9 40.7 19.2 63.6 55.7 74.2 12.8 3.6 25.6 4.9 44.7 4.4 31.2-.9 52.1-8.4 67.1-24.3 11.2-11.8 14.8-21.7 14-39-.4-8.2-1-11.2-3.2-16-6.7-14.8-21.4-25.6-44.3-32.8-4.4-1.5-23.6-6.4-42.5-11.1-45.2-11.2-65.8-18.1-77.5-26-11.5-7.8-20.2-20.2-23.8-34.1-2.6-9.8-3.1-27.7-1-37.1 7.4-34 35.8-56.3 79.5-62.4 9.7-1.3 41-.4 50.9 1.5z"/><path d="M479.5 226.1c-28.3 3.6-51.4 17-68.6 39.9-14.8 19.5-23.9 53.6-23.9 89 0 63.5 30.8 113.6 78.2 127.4 20.9 6 44.2 5.6 63.8-1.2 25-8.7 45.7-29.9 57.1-58.4 3.2-7.9 7.6-23.7 9.6-34.1 1.4-7.1 1.7-14.5 1.7-32.7 0-21.6-.2-24.5-2.7-36.1-2.8-13.4-8.2-30.1-12.4-38.3-4.9-9.6-13.6-21.8-20.8-29.2-21.2-21.4-49.3-30.4-82-26.3z"/></svg>